<?xml version="1.0" standalone="no"?>
<!DOCTYPE svg PUBLIC "-//W3C//DTD SVG 20010904//EN"
 "http://www.w3.org/TR/2001/REC-SVG-20010904/DTD/svg10.dtd">
<svg version="1.0" xmlns="http://www.w3.org/2000/svg"
 width="1500.000000pt" height="1500.000000pt" viewBox="0 0 1500.000000 1500.000000"
 preserveAspectRatio="xMidYMid meet">

<g transform="translate(0.000000,1500.000000) scale(0.100000,-0.100000)"
fill="#000000" stroke="none">
<path d="M13297 11363 c-4 -3 -7 -11 -7 -17 0 -6 5 -5 12 2 6 6 9 14 7 17 -3
3 -9 2 -12 -2z"/>
<path d="M13325 11300 c-3 -5 1 -10 10 -10 9 0 13 5 10 10 -3 6 -8 10 -10 10
-2 0 -7 -4 -10 -10z"/>
<path d="M13390 11101 c0 -11 26 -22 34 -14 3 3 3 10 0 14 -7 12 -34 11 -34 0z"/>
<path d="M13560 11081 c0 -6 5 -13 10 -16 6 -3 10 1 10 9 0 9 -4 16 -10 16 -5
0 -10 -4 -10 -9z"/>
<path d="M13431 11014 c0 -11 3 -14 6 -6 3 7 2 16 -1 19 -3 4 -6 -2 -5 -13z"/>
<path d="M13585 10991 c-3 -5 -1 -12 5 -16 5 -3 10 1 10 9 0 18 -6 21 -15 7z"/>
<path d="M13618 10830 c-7 -24 -3 -38 8 -28 3 4 4 17 2 30 l-3 23 -7 -25z"/>
<path d="M13628 10783 c-2 -5 -1 -24 3 -43 l6 -35 2 43 c1 39 -3 52 -11 35z"/>
<path d="M13630 10680 c0 -5 5 -10 10 -10 6 0 10 5 10 10 0 6 -4 10 -10 10 -5
0 -10 -4 -10 -10z"/>
<path d="M13637 10619 c-3 -12 -2 -31 3 -42 7 -18 9 -14 9 21 1 46 -4 54 -12
21z"/>
<path d="M13640 10540 c0 -5 5 -10 10 -10 6 0 10 5 10 10 0 6 -4 10 -10 10 -5
0 -10 -4 -10 -10z"/>
<path d="M13646 10443 c4 -77 14 -114 14 -55 0 27 4 31 33 35 l32 4 -32 1
c-32 2 -33 3 -33 47 0 25 -4 45 -10 45 -5 0 -7 -31 -4 -77z"/>
<path d="M13655 10310 c-4 -6 6 -7 27 -3 44 8 48 13 10 13 -17 0 -34 -4 -37
-10z"/>
<path d="M13655 10280 c3 -5 8 -10 11 -10 2 0 4 5 4 10 0 6 -5 10 -11 10 -5 0
-7 -4 -4 -10z"/>
<path d="M13655 10223 c2 -21 5 -58 6 -83 l2 -45 6 55 c7 62 3 110 -9 110 -4
0 -6 -17 -5 -37z"/>
<path d="M13662 10035 c3 -34 0 -55 -6 -55 -7 0 -8 -3 -1 -8 6 -4 11 -69 12
-152 3 -283 8 -450 13 -450 3 0 5 -39 5 -88 -1 -97 3 -122 17 -122 5 0 7 4 4
9 -4 5 -2 21 3 34 6 14 6 27 2 29 -5 2 -12 110 -15 240 -7 222 -6 237 11 241
15 4 15 5 2 6 -15 1 -18 22 -24 149 -3 81 -7 164 -8 184 -1 21 -6 38 -10 38
-5 0 -7 -25 -5 -55z"/>
<path d="M13700 8955 c0 -38 2 -66 4 -64 8 7 10 118 3 126 -4 3 -7 -24 -7 -62z"/>
<path d="M13701 8183 c0 -45 3 -84 7 -87 4 -2 6 28 4 67 -5 105 -10 114 -11
20z"/>
<path d="M13702 8060 c0 -14 2 -19 5 -12 2 6 2 18 0 25 -3 6 -5 1 -5 -13z"/>
<path d="M13724 7395 c0 -135 1 -141 3 -37 3 114 5 122 23 122 11 0 20 7 20
15 0 8 -9 15 -19 15 -12 0 -21 8 -24 23 -2 12 -3 -50 -3 -138z"/>
<path d="M13720 7176 c0 -8 4 -17 9 -20 5 -4 7 3 4 14 -6 23 -13 26 -13 6z"/>
<path d="M13738 7133 c6 -2 18 -2 25 0 6 3 1 5 -13 5 -14 0 -19 -2 -12 -5z"/>
<path d="M13741 6354 c0 -11 3 -14 6 -6 3 7 2 16 -1 19 -3 4 -6 -2 -5 -13z"/>
<path d="M13741 6290 c-3 -43 -4 -149 -2 -180 1 -8 8 -2 16 14 10 18 12 32 6
36 -6 3 -12 44 -14 90 -1 49 -4 66 -6 40z"/>
</g>
</svg>
