<?xml version="1.0" standalone="no"?>
<!DOCTYPE svg PUBLIC "-//W3C//DTD SVG 20010904//EN"
 "http://www.w3.org/TR/2001/REC-SVG-20010904/DTD/svg10.dtd">
<svg version="1.0" xmlns="http://www.w3.org/2000/svg"
 width="1500.000000pt" height="1500.000000pt" viewBox="0 0 1500.000000 1500.000000"
 preserveAspectRatio="xMidYMid meet">
<metadata>
Created by potrace 1.14, written by Peter Selinger 2001-2017
</metadata>
<g transform="translate(0.000000,1500.000000) scale(0.100000,-0.100000)"
fill="#000000" stroke="none">
<path d="M13662 10035 c3 -34 0 -55 -6 -55 -7 0 -8 -3 -1 -8 6 -4 11 -69 12
-152 3 -283 8 -450 13 -450 3 0 5 -39 5 -88 -1 -93 3 -122 15 -122 4 0 6 21 5
48 -2 26 -6 182 -10 347 -4 165 -9 302 -11 305 -1 3 -4 56 -5 118 -1 62 -7
112 -12 112 -5 0 -7 -25 -5 -55z"/>
</g>
</svg>
